<svg width="52" height="61" viewBox="0 0 52 61" fill="none" xmlns="http://www.w3.org/2000/svg">
<path d="M0 15.9501V45.0499C0 45.372 0.168319 45.6676 0.447097 45.8313L25.5529 60.3812C25.8317 60.5396 26.1683 60.5396 26.4471 60.3812L51.5529 45.8313C51.8317 45.6676 52 45.372 52 45.0499V15.9501C52 15.628 51.8317 15.3324 51.5529 15.1687L26.4524 0.618786C26.1736 0.460405 25.8369 0.460405 25.5582 0.618786L0.452357 15.1687C0.173579 15.3271 0.00525996 15.628 0 15.9501Z" fill="#D7D8DF"/>
<path d="M38.3241 23.9276V37.0679C38.3136 37.2369 38.2662 37.4058 38.1768 37.5484L26 30.5004V16.3887C26.1736 16.3887 26.3419 16.4256 26.4944 16.5048L37.8349 23.0776C38.1295 23.2677 38.3136 23.5844 38.3294 23.9329" fill="#EEEBF0"/>
<path d="M26.0001 16.3887V30.5004L13.8233 37.5537C13.7391 37.4058 13.6918 37.2422 13.6865 37.0732V23.9276C13.6918 23.7534 13.7444 23.5897 13.8338 23.4419C13.9127 23.2941 14.0337 23.1674 14.1757 23.0776L25.5267 16.5048C25.674 16.4256 25.8423 16.3887 26.0106 16.3887" fill="#D3D4DB"/>
<path d="M26.3946 44.5117C26.4735 44.4906 26.5471 44.4589 26.6155 44.422L29.9398 42.4475L17.7209 35.2939L13.8232 37.5535H13.8601C13.96 37.7436 14.1125 37.8967 14.2914 38.0128L25.3846 44.4431C25.574 44.5434 25.7844 44.5962 25.9948 44.5909C26.1263 44.5804 26.2578 44.5592 26.384 44.5328" fill="#D3D4DB"/>
<path d="M25.6189 5.20007L4.66747 17.2237C4.30905 17.4594 4.07714 17.8471 4.05078 18.2715V42.3187C4.07714 42.743 4.30905 43.1307 4.66747 43.3665L25.6189 55.3901C26.0037 55.5839 26.4623 55.5839 26.847 55.3901L47.8776 43.2565C48.0251 43.1622 48.062 42.9631 47.9672 42.8216C47.9461 42.7849 47.9145 42.7588 47.8776 42.7326L38.4323 37.3049L26.2303 30.3003L17.9341 35.0626L30.1782 42.1615L26.847 44.1209C26.7785 44.1576 26.7047 44.189 26.6257 44.21C26.4992 44.2466 26.3674 44.2676 26.2356 44.2676C26.0195 44.2728 25.8087 44.2204 25.6189 44.1209L14.5028 37.7397C14.1444 37.504 13.9125 37.1163 13.8861 36.6919V23.9244C13.9125 23.5 14.1444 23.1124 14.5028 22.8766L25.6189 16.4954C26.0037 16.3016 26.4623 16.3016 26.847 16.4954L37.9632 22.8766C38.3479 23.0704 38.8065 23.0704 39.1913 22.8766L47.7932 17.9362C47.9882 17.8733 48.0989 17.6637 48.0304 17.4647C47.9935 17.3494 47.9039 17.2656 47.7932 17.2289L26.847 5.20007C26.4623 5.00623 26.0037 5.00623 25.6189 5.20007Z" fill="url(#paint0_linear_956_58968)"/>
<defs>
<linearGradient id="paint0_linear_956_58968" x1="48.9635" y1="32.2695" x2="3.17341" y2="28.2419" gradientUnits="userSpaceOnUse">
<stop stop-color="#39BA96"/>
<stop offset="0.51" stop-color="#12A6AD"/>
<stop offset="0.71" stop-color="#0C92B2"/>
<stop offset="0.86" stop-color="#1F89C4"/>
<stop offset="1" stop-color="#3079BE"/>
</linearGradient>
</defs>
</svg>
